<svg xmlns="http://www.w3.org/2000/svg" viewBox="276 384 40.25 31.25"><defs><clipPath id="a"><path d="M276 384h41v32h-41Zm0 0"/></clipPath><clipPath id="b"><path d="m298.69 366.93 34.76 39.3-32.58 28.8-34.76-39.3Zm0 0"/></clipPath><clipPath id="c"><path d="m298.69 366.93 34.76 39.3-32.58 28.8-34.76-39.3Zm0 0"/></clipPath></defs><g clip-path="url(#a)"><g clip-path="url(#b)"><g clip-path="url(#c)"><path fill="currentColor" d="M278.26 402.99q-.13-.2-.08-.26c.07-.07-.2-.35-.34-.33q-.1.01-.11-.16-.02-.17-.14-.23a1 1 0 0 1-.2-.29c-.05-.12-.1-.26-.13-.3l-.05-.22q0-.14-.06-.1-.04.02-.06-.14-.01-.15-.1-.2c-.06-.02-.1-.15-.1-.3s-.07-.4-.16-.54-.13-.33-.1-.39q.07-.12-.15-.29c-.18-.14-.2-.2-.1-.33q.08-.15-.02-.29-.1-.12-.04-.18a.1.1 0 0 0 .01-.13c-.12-.13-.17-.81-.06-.85.05-.03.06-.2 0-.38-.05-.19-.06-.36-.03-.39q.05-.05 0-.12c-.1-.1-.04-.57.08-.68.06-.05.07-.16.04-.24-.1-.18.12-.95.29-1.04.1-.06.17-.68.07-.78q-.01-.06.17-.16.17-.11.12-.2-.07-.06-.12.04-.03.08 0-.1a1 1 0 0 1 .12-.31q.2-.18.33-1.02a1 1 0 0 1 .26-.47q.24-.2.05-.16-.2.03-.05-.08c.06-.06.1-.21.1-.34q-.04-.23.13-.32.15-.08.13-.17t.08-.23c.07-.07.16-.2.2-.28q.06-.14.17-.17.09-.03.11-.23.02-.18.09-.2.07-.01.14-.17c.05-.13.1-.16.24-.12q.23.1.06-.08c-.1-.11-.08-.18.13-.36.15-.12.29-.29.32-.37s.18-.17.32-.2q.25-.06.3-.23.07-.17.15-.06.1.12.25-.1.16-.19.7-.35l.56-.16v-.3q-.01-.35.05-.07c.05.17.1.19.3.12.23-.07.24-.08.1-.18q-.34-.23.29-.14c.36.04.56-.03.44-.16q-.04-.06.05-.15a.14.14 0 0 0 0-.2q-.1-.1-.16.02-.07.11-.13.06c-.09-.1.12-.25.42-.29q.24-.03.24-.07c-.02-.02.17-.03.41-.03.25 0 .57-.05.7-.13q.23-.11.2-.03-.05.1.03.13.07.04 0 .12-.1.08.05.19c.14.1.15.08.16-.2 0-.3.17-.56.28-.44.03.03.15 0 .26-.05q.2-.1.23-.02.02.1.14.08.1-.03.1-.15c-.03-.14.4-.3.58-.21q.12.05-.19.12c-.16.03-.3.1-.3.16q.01.1.11.07c.07-.03.18.02.25.1q.12.1.1.02-.08-.14.18-.12c.13 0 .27.04.32.1q.08.07.19-.01c.06-.06.25-.09.41-.07q.29.02.27-.07-.04-.1.11-.16t.18.04.1.04q.06-.06-.1-.17-.32-.19.26-.16c.18 0 .3.04.25.09q-.08.04-.15 0-.06-.06-.1.03c-.04.14.32.27.45.15q.07-.08.01-.22-.1-.15.3 0c.22.08.36.1.32.06s-.01-.15.06-.21q.2-.17.34.1.05.03.17-.07c.08-.06.23-.1.35-.06.17.04.26 0 .4-.18.14-.19.19-.21.27-.12q.1.08.17.05.06-.05.14.03c.14.15.4.11.41-.07q-.01-.17.16.01.14.15.11.05t.02-.17q.07-.03.12.1c.04.12.08.11.2-.05.13-.15.18-.17.27-.06.1.1.15.1.23-.02s.12-.13.18 0q.07.14.18.14.1-.02.04-.09a.1.1 0 0 1 .01-.13q.07-.05.09.03c0 .05.1.05.21 0 .11-.04.32-.09.47-.1.15 0 .29-.05.3-.1q.03-.07.15-.04.1.03 0 .05-.12.02-.07.1.06.05.17.04.1 0 .2.1c.06.06.2.1.32.08q.21-.03.12-.1-.08-.06-.03-.17c.05-.09.21 0 .34.2q.04.03.1-.04.08-.08.17 0c.24.22.48.3.6.2a.2.2 0 0 1 .24-.04q.13.06.2-.07.08-.18.16.04.08.21.15.06.06-.1.19-.08.12.03-.02.06-.15.02 0 .09.12.08.12.2 0 .14.1.15.09 0 .05-.1t.06-.2-.02-.13 0-.06q.1 0 .17.13.06.18.13.01c.07-.12.26-.14.37-.02.07.08.23.06.16-.03q-.06-.07 0-.14a.1.1 0 0 1 .13.02c.1.1.38.1.45-.02q.06-.08.1-.04c.02.04.12.17.23.27.18.19.22.19.42.02.13-.1.27-.16.32-.14l.25.07c.08 0 .3.09.47.19q.29.16.34.06.03-.1.09.05c.05.12.08.11.2-.05.12-.18.14-.19.2-.03.15.44.19.47.34.28q.13-.2.31-.06.2.13.16-.03c-.01-.11 0-.13.12-.06q.15.07.05.23c-.06.08-.08.19-.05.22q.06.05.16-.09c.11-.16.23-.11.18.07q-.03.1.05.16c.12.07.38-.1.4-.26q.03-.13.16 0c.08.07.27.14.43.16s.27.05.24.07.12.09.33.13c.42.08.6.2.4.28q-.15.05 0 .12.1.06.18-.04c.07-.13.44-.08.7.1.1.07.22.1.25.07q.06-.03.17.15.1.22.2.13.1-.1.06.1c-.04.18-.02.2.24.25.15.03.32.1.39.17q.1.14.17 0 .07-.1.19-.05.1.07-.01.1-.12.07-.07.13c.03.05.1.05.13.02q.07-.06.14.02c.03.03.22.07.41.08.37.01.64.11.63.24q-.01.06-.16.08-.16.01-.17.08 0 .07.07.02c.04-.04.2.02.33.13.14.1.31.16.39.12q.14-.06-.01.08c-.17.17-.15.21.12.23.1 0 .26.1.35.2s.26.2.37.23c.12.03.3.1.4.17q.2.11.04.16c-.17.06.01.3.3.41q.18.07.15.17-.04.09-.11.02-.06-.06-.05.16c.03.25.21.38.27.2q.03-.12.1.04.04.21.19-.03.22-.31.22.08 0 .17.04.05.04-.1.15-.08.08.03 0 .12-.22.17.16.19.2 0 .19.15c0 .07.05.2.13.3.08.08.16.24.19.35q.05.2.11.13a.1.1 0 0 1 .14.01q.06.08-.05.12t.06.25c.14.17.18.17.26.04.1-.15.11-.14.25.1.1.14.15.3.14.34-.03.13.14.35.25.33.16-.03.41.46.38.72-.02.12.06.35.18.5.21.3.29.45.43.88.04.13.14.3.23.37q.15.14.05.34c-.1.2.01.17.2-.03q.07-.07.15.09.07.17 0 .18-.09.03.05.2.17.17.02.29c-.11.1-.1.16.07.35.1.12.19.3.17.4s.05.26.15.37.14.23.1.26-.02.22.04.42.1.46.09.58c0 .13.02.26.05.3.11.12.02 1.1-.1 1.11q-.1.02-.06.08c.07.09-.25.77-.37.8q-.1.01-.06.08c.06.07-.24.48-.6.81q-.19.2-.12.29t0 .16q-.07.05-.12-.07c-.07-.17-.33.03-.27.2q.05.14-.1.08-.15-.03-.13.07c.02.16-.5.86-.65.9q-.4.05-.41.46 0 .3-.13.24c-.17-.05-.65.28-.63.43.01.06-.07.2-.19.3q-.2.19-.13.28.12.09-.18.24-.43.24-.94.62c-.13.09-.29.18-.35.19-.19.03-.2.2-.04.4.08.09.2.33.24.53.12.5.36 1.24.44 1.33.04.03.04.1 0 .12-.03.03-.01.14.04.24s.15.46.2.8a3 3 0 0 0 .2.7q.07.1-.02.2-.1.08.04.18t.17.38c.01.16.06.35.12.41s.06.17.03.24c-.04.07 0 .21.1.33.1.1.15.22.11.25q-.05.07 0 .15c.16.17.3 1.03.27 1.53-.02.28 0 .54.03.58s.04.14.03.24q-.02.2-.11.08-.07-.06-.05.16.04.28-.11.22c-.12-.03-.15 0-.13.18.01.2 0 .19-.16-.07-.14-.21-.21-.26-.33-.23-.08.04-.18.02-.22-.03a.4.4 0 0 0-.25-.07.5.5 0 0 1-.32-.16q-.15-.18-.29-.04-.13.1-.26-.01l-.3-.3c-.1-.1-.27-.23-.37-.29q-.2-.11-.1-.19t-.04-.05c-.2.03-.5-.23-.34-.29q.15-.04-.02-.22-.14-.15-.25-.08-.09.08-.16.03-.05-.07.01-.13t0-.14q-.07-.06-.17.1c-.1.14-.11.14-.11-.06 0-.25-.1-.41-.11-.18-.02.24-.12.27-.16.04-.03-.18-.06-.21-.19-.2q-.19.06-.05-.16l.1-.2-.33-.05q-.35-.07-.18-.12.15-.06.1-.2-.13-.33-.2-.15-.04.12-.1-.04l-.09-.18q0-.04.08-.12.1-.1.04-.17-.06-.06-.22.14c-.13.18-.19.2-.32.11-.13-.08-.14-.16-.05-.34q.12-.23-.01-.2c-.07.01-.16 0-.18-.05-.11-.19-.28-.28-.36-.21a1 1 0 0 1-.31.09q-.2 0-.1-.03c.12-.03.1-.06-.43-.44l-.3-.2q-.22-.11-.02-.17t0-.08q-.17-.03-.14-.13a.1.1 0 0 1 .13-.07q.29.07.08-.3-.14-.24-.03-.36.14-.12-.1-.03c-.28.1-.28.16-.04.41.15.17.16.2.04.21a.3.3 0 0 0-.22.13q-.06.13-.25-.08c-.16-.15-.17-.21-.07-.3q.23-.2-.12-.25-.2 0-.11-.12.04-.1-.04-.14c-.1-.03-1.1.26-1.2.36q-.08.05-.17-.1-.07-.16-.14-.12-.05.07 0 .15l.14.21.18.25q.07.12 0 .14-.08.04.04.22c.16.23.08.48-.08.27-.1-.13-.75-.31-.85-.24-.02.01.08.14.23.27q.26.25.19.32-.08.06-.19-.14t-.19-.13q-.08.05-.14-.08-.08-.21-.06.01c0 .3-.34.46-.66.31-.16-.07-.27-.08-.24-.02q.1.25-.29.1c-.2-.1-.21-.12-.08-.24q.17-.17 0-.07a.4.4 0 0 0-.18.25c-.03.14 0 .16.17.15.1 0 .17.02.12.06-.1.1-.4.04-.43-.09-.01-.12-.62-.16-.85-.05a.4.4 0 0 1-.3-.04.5.5 0 0 0-.4-.01c-.11.04-.24.05-.28 0q-.06-.05-.2.09-.12.15-.19.05-.06-.08-.12-.04c-.1.09-.85.01-.94-.1q-.07-.07-.14.02c-.03.06-.38.1-.79.1-.4-.02-.7-.06-.65-.09q.07-.06-.16-.16c-.23-.1-.38-.07-.27.06q.06.07-.04.09a.2.2 0 0 1-.2-.09q-.08-.09.05-.12t-.07-.06c-.25-.04-.35.05-.16.15q.19.1-.03.08-.17 0-.24-.09-.07-.06-.14-.02c-.13.11-.54.11-.69 0-.08-.06-.2-.06-.25 0-.1.1-.16.05-.44-.3a2 2 0 0 0-.34-.36c0 .03-.12.05-.26.04-.15 0-.3.06-.37.15q-.1.13-.06.06.03-.11-.97-.52a4 4 0 0 1-1.78-1.14q-.05-.04-.09.05c-.01.05-.17.03-.35-.05s-.38-.13-.45-.1q-.15.05-.15-.12c0-.13-.08-.22-.33-.37-.26-.16-.32-.24-.3-.33.05-.15-.22-.36-.3-.24l-.13.17c-.03.05-.15.01-.25-.08q-.17-.17-.12-.22.05-.07 0-.12t-.23.15c-.14.19-.18.2-.3.08q-.11-.13-.19-.09c-.03.03-.14-.03-.24-.14q-.18-.2-.34-.13t-.42-.12c-.15-.11-.3-.16-.35-.11q-.1.1-.26-.16-.15-.22-.13-.14c.04.13-.27.3-.36.21-.03-.04-.14-.07-.24-.08a.6.6 0 0 1-.34-.17q-.14-.14-.25-.14t-.12-.07c0-.06-.1-.09-.22-.08-.24.03-.54-.1-.41-.18q.08-.06.04-.16t-.12-.05c-.03.04-.13-.01-.21-.1a.6.6 0 0 0-.41-.15c-.15 0-.3-.05-.35-.13q-.09-.12-.15-.07-.09.06-.13-.13c-.06-.26-.1-.29-.21-.19s-.17.09-.45-.1q-.24-.16-.11-.25.1-.08.05-.15-.06-.05-.16.1-.1.13-.18.07-.05-.07.03-.1a.1.1 0 0 0 .08-.1q-.02-.1-.16-.05c-.13.05-.2-.02-.5-.42a3 3 0 0 0-.53-.58c-.1-.06-.25-.2-.33-.32m1.68.28q.13.22.19.08c.07-.15.24.01.3.3q.04.2.12.13a.1.1 0 0 0 0-.14q-.04-.06.05-.09c.15-.02.23.1.12.2q-.08.08-.04.22.06.1.11.08c.03-.03.13 0 .21.07.09.08.21.11.28.08q.1-.05.02-.08c-.05-.02-.18-.1-.3-.19q-.21-.17-.05-.16c.18 0 .57.36.48.44q-.06.07 0 .14.06.05.17-.08.1-.2.2.05.12.2.36.27c.15.04.3.12.36.18.1.11.72.3.85.25q.07-.02.16.07.08.08.13.06c.07-.06.06-.4-.02-.5q-.08-.09.03-.04c.14.07.26-.16.15-.29q-.08-.08-.17-.02-.1.1-.04-.04.05-.1-.03-.2t-.13.02l-.13.24c-.12.14-.4-.15-.37-.38q.05-.33-.21-.19c-.14.07-.14.07-.07-.09.09-.19.1-.19.37 0q.24.15.1.24a.14.14 0 0 0 0 .19q.07.09.18-.06t-.04-.32q-.12-.15-.07-.22c.12-.11-.13-.28-.3-.2-.09.05-.19.06-.22.02q-.06-.05-.09.1-.02.21-.12.08c-.05-.05-.04-.17.02-.26q.13-.18-.05-.26-.15-.1-.13-.2.04-.1.1-.04t.13 0q.07-.04-.12-.12-.4-.15-.2-.32.16-.13-.03-.08c-.19.05-.15-.04-.13-.33.02-.36-.2-.68-.35-.49q-.08.11-.09-.05c0-.2-.19-.53-.25-.47-.03.02-.13 0-.21-.06q-.14-.1-.1-.16.06-.04.13.01.05.06.12.02c.12-.11-.5-.99-.8-1.14-.13-.06-.13-.1 0-.22q.16-.15.14-.27-.06-.12.1-.08.16.06.04-.16-.2-.43-.32-.3-.05.07.08.17.15.1.1.15c-.06.06-.35-.13-.55-.36q-.2-.22.04-.1.22.11-.06-.12c-.13-.11-.2-.2-.13-.18s.22-.02.33-.1c.17-.1.2-.16.1-.32a1 1 0 0 0-.24-.3 1 1 0 0 1-.25-.34l-.1-.26v.29q.01.27.17.39c.1.06.18.21.19.34q.04.32-.09.03-.1-.19-.24-.18c-.12.03-.14 0-.14-.19 0-.12-.05-.32-.11-.45-.07-.12-.08-.3-.02-.38q.1-.16-.04-.26c-.16-.11-.24-.4-.14-.5q.08-.03.08.19 0 .21.06.18c.08-.07.01-.36-.1-.44-.08-.06-.09-.36 0-.43q.06-.05.12.08t.08.04a.2.2 0 0 0-.04-.18 1 1 0 0 1-.06-.3c0-.2-.02-.23-.15-.21-.14.02-.16 0-.12-.14.06-.2.15-.28.17-.15q.03.1.13.01.09-.09.03-.18t.11 0l.18.08-.12-.14a1 1 0 0 0-.25-.18c-.15-.04-.19-.58-.05-.61q.07-.03.01-.1-.04-.06.04-.16c.05-.04.07-.18.05-.29s0-.2.04-.21q.08-.03.08-.2t.14-.18q.15.01.1-.28-.03-.3.13-.36.14-.09.14-.18t.05-.16q.07-.03.09.05t.08.04q.06-.06.03-.17-.06-.11.1-.1.17.02.17-.25c.02-.25.02-.25.35-.21.31.04.33.04.2-.1q-.14-.13.07-.31c.18-.18.98-.42 1.06-.33q.06.03.22-.1.15-.15.1-.22a.1.1 0 0 0-.12-.01.1.1 0 0 1-.13 0c-.03-.04.05-.17.18-.29q.24-.22.33-.1c.09.1.1.08.13-.06s.1-.22.38-.34c.2-.1.35-.21.35-.27-.01-.05.09-.19.21-.3l.52-.56c.23-.25.3-.3.38-.22q.07.1.05.2a.2.2 0 0 0 .05.18q.07.08.03-.04-.03-.11.08-.22c.16-.14-.02-.6-.24-.61-.09 0-.2.02-.23.06-.04.03-.23.12-.43.17-.19.07-.4.15-.47.19-.86.52-1.07.63-1.21.63q-.13.01-.11.12 0 .1-.11.13a2 2 0 0 0-.43.29c-.17.14-.36.23-.41.2q-.09-.05-.16 0-.06.06.05.1.12.03-.03.09c-.08.03-.15.14-.16.24-.01.2-.26.47-.34.38q-.07-.06-.2-.01-.15.05 0 .14c.14.08.12.12-.16.35-.18.14-.3.29-.27.32q.04.05-.07.08c-.23.04-.32.14-.2.2q.12.06-.06.15c-.1.05-.24.2-.33.36s-.18.29-.22.32q-.06.05-.04.18c.01.1-.01.13-.16.14-.2 0-.29.17-.16.31.1.11-.01.47-.17.54-.05.02-.11.18-.13.36-.03.44-.2.75-.37.7q-.15-.05-.1.12l.03.39.02.23-.09-.17q-.1-.21-.03.05c.03.13.01.26-.04.31q-.09.07-.11-.02c-.02-.13-.11-.05-.17.14q-.02.14.07.17.1.04.01.13a.14.14 0 0 0-.02.2c.06.05.05.14 0 .18-.05.05-.07.16-.03.25.05.15.04.15-.14.12-.19-.04-.2-.04-.11.12q.09.15.11.08.04-.08.07-.05.02.05-.09.26-.1.2 0 .25.12.04.01.05c-.14.03-.23.74-.11.87q.12.13-.1.07-.4-.07-.14.14.13.12.12.2-.02.1.1.17.13.06.03.22a.4.4 0 0 0-.01.35c.05.1.05.29 0 .41q-.08.24.07.34.13.1.07.16c-.04.04.01.2.11.36s.2.44.24.62.11.38.18.46q.11.13.07.24c-.03.05.12.3.37.61.24.3.5.64.57.77q.14.25.12.1-.01-.15.08-.12c.06.01.09.13.07.27q-.02.24.12.26c.08 0 .2.11.27.22m4.03.94q.15.16.03-.09c-.12-.25-.34-.42-.44-.34q-.05.07.1.18c.1.06.24.17.31.25m-2.87-4.56q.05-.28.15.12c.05.2.25.24.22.05-.02-.15-.47-.67-.58-.67s-.07.28.05.31q.07.05 0 .17-.05.12.04.16.08.01.12-.14m7.49 8.43q-.05.1.09.2c.14.1.14.1.1-.1-.06-.24-.28-.41-.4-.3q-.06.05.1.08.18.02.11.12m2 1.29q.02-.1-.09-.17t-.05-.13q.14-.13-.25-.2c-.2-.05-.2-.03.07.28q.3.33.32.22m-4.02-4.67c0-.04.18.12.37.34.2.22.38.39.4.36q.07-.02.27.2c.11.12.24.2.27.17q.07-.04.21.03c.08.05.3.1.48.12.19.02.43.12.54.23.1.1.23.15.27.12q.08-.07.14.07.06.17.12.03c.07-.13.46-.2.57-.1l.17.14q.1.08.16.04.05-.06-.05-.12-.1-.07-.1-.17.06-.07.38.18c.18.16.31.23.28.17q-.03-.1.02-.16c.1-.09.57-.04.66.07.09.1.62.05.77-.07.06-.05.16-.04.22.02.14.12.07.23-.1.15q-.1-.06-.01.06c.09.1.3.08.44-.05q.05-.06-.03-.16t.02-.12q.12-.01.2.15c.05.1.15.18.21.2.07 0 .22.1.33.2q.2.18.35.1.14-.1.03-.13c-.12-.04-.16-.34-.06-.44q.06-.06.08.1-.01.19.11.05.12-.12.2.02t.3.02c.11-.06.23-.08.26-.04q.06.04.15-.03a.3.3 0 0 1 .22-.05q.1.03 0 .05-.12.03 0 .16c.09.1.16.1.3 0q.16-.15.19-.06c.02.15.34.16.46 0q.1-.13.27.09c.18.2.32.18.29-.04q-.03-.12-.06 0-.04.1-.13 0-.07-.1.05-.23.15-.15.23.04.08.15.14.05c.03-.07.13-.07.21-.02q.17.1.27-.06c.1-.15.13-.14.2.04.09.19.1.2.13.01.03-.16.06-.19.29-.16q.47.04.44.43c0 .1.04.21.1.23.27.08.37.23.22.34-.07.07-.17.08-.2.04q-.06-.05-.04.08c.02.14 0 .16-.19.17q-.3 0 0 .05c.31.06.09.16-.35.15-.22-.01-.4.03-.42.07q-.04.07-.2-.01c-.16-.1-.33-.04-.22.08q.06.05.13 0t.09.03c.02.12-.64.31-.73.2q-.08-.06-.18.01-.1.09-.19.02l-.16-.13-.15-.12q-.06-.04-.05.07.03.13-.38.13c-.22 0-.37-.03-.33-.07.05-.03.01-.14-.07-.24s-.11-.2-.07-.23q.06-.07 0-.08c-.06 0-.13.14-.17.31-.06.3-.07.31-.14.16q-.08-.18-.2-.06-.12.1 0 .17.12.06.1.15c-.02.07-.24.01-.35-.1l-.23-.1a1 1 0 0 1-.28-.2q-.09-.12-.19-.05t-.35-.11c-.37-.3-.61-.21-.36.11q.09.14 0 .16c-.26.05-.54.02-.6-.06q-.08-.08-.15-.02c-.11.1.2.39.35.33.08-.03.18 0 .22.05s.3.16.56.25l.66.22c.23.07.96.1 1.03.04.09-.07.74.03.78.13q.05.07.2 0c.1-.05.22-.03.27.02q.1.1.16-.01t.2-.05q.11.06.19-.05c.03-.07.18-.1.33-.08.14.03.38.01.52-.04.15-.04.3-.03.36.03q.08.09.12 0c.05-.15-.14-.74-.26-.78q-.09-.03.03-.09c.16-.05.16-.05.41.2q.21.19 0 .2c-.12.04-.14.1-.08.28.06.2.1.23.22.18.21-.08.6-.05.7.06q.08.1.05-.06c-.02-.13.03-.17.33-.28.2-.06.38-.08.4-.03s.16.02.3-.05.3-.12.37-.09q.11.05.21-.09c.06-.1.22-.18.39-.2.16-.02.32-.08.36-.13q.07-.07.15 0c.04.05.17.01.31-.1.43-.34.92-.63 1.02-.6.05.01.2-.06.32-.16s.24-.15.27-.12q.05.07-.13.17c-.2.1-.33.39-.17.4q.08-.01.07-.15-.04-.2.09-.04c.1.11.1.1.16-.12.08-.31.27-.47.42-.34.16.16.24.21.4.29.14.07.73.51.89.66l2.05 2.24a32 32 0 0 0 2.36 2.49q.07.02.13-.15c.04-.1.12-.2.18-.21q.08-.03.04-.09-.06-.06-.17-.05-.1 0-.17-.13a2 2 0 0 0-.23-.4 1 1 0 0 1-.22-.53 1 1 0 0 0-.28-.53c-.24-.23-.23-.34.06-.52q.03-.04-.1-.13-.15-.1-.1-.16c.03-.03.17.02.3.12.22.15.24.15.15 0-.06-.1-.07-.2-.02-.2.2-.04-.03-.15-.25-.13q-.22.02-.25-.1-.04-.14.19-.1.24.06.08-.03-.14-.07-.03-.24c.08-.13.06-.19-.1-.3s-.17-.15-.04-.26q.18-.14 0-.15c-.2 0-.4-.23-.3-.32.04-.03.17-.05.27-.03q.27.08.08-.1c-.17-.2-.4-.24-.44-.08q-.05.12-.06 0-.03-.1-.1-.05-.07.04-.09-.03-.03-.1-.22-.05c-.11.02-.22 0-.23-.05q-.01-.1-.08-.04t0 .14q.04.07-.14.04-.2-.06-.23-.13-.01-.07-.08-.02-.06.06-.02.17.02.08-.12-.07-.15-.19-.05-.22.11-.06.1-.16-.02-.1-.1-.05-.07.08-.12-.14c-.04-.19-.06-.2-.15-.04-.08.13-.1.14-.15.03q-.05-.14 0-.2t-.07-.12q-.12-.04-.15.03-.04.08-.1.02-.04-.07.02-.14t0-.08-.07-.19c.01-.14.12-.26.48-.51l.73-.52c.83-.6 2.53-2.07 2.8-2.44l.44-.56a1 1 0 0 0 .13-.34c0-.1.06-.25.11-.35s.1-.25.1-.34c0-.22.11-.33.18-.16q.06.12.14.12c.12-.02.02-.27-.14-.36q-.13-.07-.03-.15c.06-.05.08-.16.05-.24-.06-.14-.04-.15.15-.1.18.03.2.01.22-.14q0-.15-.04-.06-.05.1-.17.05c-.1-.06-.06-.41.07-.55a2 2 0 0 0-.11-.92q-.04-.06.02-.2.07-.14-.07-.24t-.12-.35q.04-.21.04-.08.01.17.13.31.13.15.1 0t.07-.17c.06 0 0-.1-.12-.2q-.22-.18-.16-.34c.03-.09-.01-.24-.1-.35-.2-.22-.43-.97-.33-1.06q.07-.05.15.1.08.17.23.23.17.09-.05-.3-.2-.4-.26-.3-.07.06-.2-.1c-.22-.32-.48-.91-.42-.96q.04-.05-.07-.18a.3.3 0 0 1-.06-.3q.05-.16 0-.13t-.07-.15q0-.2-.05-.07-.04.11-.1.06-.05-.07-.02-.17.01-.1-.06-.13a6 6 0 0 1-.94-1.49q-.1-.15-.22-.19c-.1-.02-.59-.37-.92-.66-.15-.15-1.05-.68-1.38-.84-.2-.09-.63-.31-.95-.5a5 5 0 0 0-1.34-.57l-.94-.35a1 1 0 0 1-.4-.2q-.1-.1-.23-.04-.12.03-.16-.02a6 6 0 0 0-1.1-.29 7 7 0 0 1-1.34-.34c-.07.01-.3-.02-.5-.07s-.43-.09-.49-.08q-.1 0-.11-.18.01-.24-.1-.1-.22.28-.33.16c-.04-.04-.2-.06-.36-.06-.15.01-.3-.02-.3-.07 0-.04-.1-.04-.19 0q-.16.08-.2 0c0-.07-.1-.1-.2-.07s-.48-.02-.83-.09c-.36-.07-1.13-.15-1.7-.19a7 7 0 0 1-1.1-.1 3 3 0 0 0-1.15 0q-.1.06-.2.04t-.13.07q-.05.07-.18-.06-.16-.15-.07 0 .11.23-.12.23a1 1 0 0 0-.3.13c-.3.2-.52.23-.86.1-.17-.07-.29-.07-.26 0 .07.18-.07.22-.22.06q-.17-.2-.08.03c.06.15.05.16-.13.13-.1-.01-.22.03-.25.09q-.06.1-.12.05t-.1 0l-.18.1-.39.14c-.13.05-.27.07-.3.03s-.2.03-.39.14a2 2 0 0 1-.55.24 1 1 0 0 0-.32.12c-.06.05-.28.14-.49.2s-.52.2-.68.32a3 3 0 0 1-.46.26c-.09.02-.19.14-.23.25q-.08.22-.15.12-.08-.1-.08.06c-.01.1-.14.27-.3.4-.14.14-.27.32-.28.4q0 .18-.08.08-.06-.09-.26.26-.17.3-.23.3-.03-.03.03.15.09.21-.13.39c-.12.1-.31.52-.47 1.02-.16.47-.31.89-.36.92q-.06.07-.01.14c.03.03.01.24-.05.45a5 5 0 0 0-.15.67c-.02.16-.08.36-.13.44q-.07.14 0 .22t-.04.13q-.1.07-.03.07c.08.01.26 1.73.24 2.28 0 .11.05.36.12.56l.28.87c.08.28.2.57.28.64.06.08.14.23.16.33.03.1.12.28.2.39.1.11.17.25.17.32 0 .06.1.25.23.43a12 12 0 0 0 1.96 2.71m19.28 5.78q.07-.06.16.04c.1.11.23.04.2-.12-.03-.19-.38-.63-.44-.57q-.05.06.08.23c.13.14.12.19-.02.25q-.16.08-.1.15t.12.02m-17.33-23.59q.15-.07.25.01.07.08.15.03c.15-.13-.12-.24-.4-.17q-.27.07-.23.15.06.06.23-.02m21.24 23.46q.16 0-.02-.08a1 1 0 0 1-.27-.22c-.06-.07-.15-.1-.19-.07-.09.09.28.36.48.37m5.04-9.57q-.03-.11.06-.2t.03-.15c-.08-.1-.2.01-.17.16q0 .1-.15.2c-.16.08-.16.08.06.09q.23.01.17-.1m.13-.8c.01-.18.08-.34.15-.37q.1-.05.1-.17-.03-.12-.06-.01-.04.1-.1.04-.06-.08 0-.2c.07-.14 0-.29-.1-.2a3 3 0 0 0-.08 1.16q.05.03.09-.26m-5.04-9.6q.1-.01.2.1c.04.07.18.18.3.24.2.1.2.07-.06-.26-.22-.3-.3-.35-.37-.28q-.1.08-.16 0t-.12-.04c-.1.08.07.26.21.24m1.72 1.9c.15.15.28.26.3.24.09-.07.45.47.41.61q-.06.19.1.03c.09-.07.15-.2.13-.27a11 11 0 0 0-1.65-1.92c-.2-.1-.2-.1-.1.17.18.52.29.72.42.78.08.04.25.2.4.35m0 0"/></g></g></g></svg>